/* XPM */
static char *result[] = {
/* columns rows colors chars-per-pixel */
"64 64 6 1 ",
"  c #B36632",
". c #DF7126",
"X c #A19A03",
"o c #D2C90B",
"O c #FBF236",
"+ c None",
/* pixels */
"++++++++++++++++++++++++++++++....++++++++++++++++++++++++++++++",
"++++++++++++++++++++++++++++++....++++++++++++++++++++++++++++++",
"++++++++++++++++++++++++++++++....++++++++++++++++++++++++++++++",
"+++++++++++++++++++++++++++...OOOO   +++++++++++++++++++++++++++",
"+++++++++++++++++++++++++++...OOOO   +++++++++++++++++++++++++++",
"+++++++++++++++++++++++++++...OOOO   +++++++++++++++++++++++++++",
"+++++++++++++++++++++++++++...OOOO   +++++++++++++++++++++++++++",
"+++++++++++++++++++++++++++...OOOO   +++++++++++++++++++++++++++",
"+++++++++++++++++++++++++++...OOOO   +++++++++++++++++++++++++++",
"++++++++++++++++++++++++...OOOOOOOOoo   ++++++++++++++++++++++++",
"++++++++++++++++++++++++...OOOOOOOOoo   ++++++++++++++++++++++++",
"++++++++++++++++++++++++...OOOOOOOOoo   ++++++++++++++++++++++++",
"++++++++++++++++++++++++...OOOOOOOOoo   ++++++++++++++++++++++++",
"++++++++++++++++++++++++...OOOOOOOOoo   ++++++++++++++++++++++++",
"++++++++++++++++++++++++...OOOOOOOOoo   ++++++++++++++++++++++++",
"+++++++++++++++++++++...OOOOOOOOOooooooo   +++++++++++++++++++++",
"+++++++++++++++++++++...OOOOOOOooooooooo   +++++++++++++++++++++",
"+++++++++++++++++++++...OOOOOOOooooooooo   +++++++++++++++++++++",
"+++++++++++++++++++++...OOOOOOOooooooooo   +++++++++++++++++++++",
"+++++++++++++++......OOOOOOoooooooooooooXXX      +++++++++++++++",
"+++++++++++++++......OOOOOOoooooooooooooXXX      +++++++++++++++",
"+++++++++++++++......OOOOOOooooooooooooXXXX      +++++++++++++++",
"...............OOOOOOOOOOooooooooooooooXXXXXXXXXX               ",
"...............OOOOOOOOOooooooooooooooXXXXXXXXXXX               ",
"...............OOOOOOOOOoooooooooooooXXXXXXXXXXXX               ",
"+++...OOOOOOOOOOOOOOOOOoooooooooooooXXXXXXXXXXXXXXXXXXXXXX   +++",
"+++...OOOOOOOOOOOOOOOOoooooooooooooXXXXXXXXXXXXXXXXXXXXXXX   +++",
"+++...OOOOOOOOOOOOOOOOooooooooooooXXXXXXXXXXXXXXXXXXXXXXXX   +++",
"++++++...OOOOOOOOOOooooooooooooooXXXXXXXXXXXXXXXXXXXXXX   ++++++",
"++++++...OOOOOOOOOooooooooooooooXXXXXXXXXXXXXXXXXXXXXXX   ++++++",
"++++++...OOOOOOOOOoooooooooooooXXXXXXXXXXXXXXXXXXXXXXXX   ++++++",
"+++++++++...OOOOOOooooooooooooXXXXXXXXXXXXXXXXXXXXXX   +++++++++",
"+++++++++...ooooooooooooooooooXXXXXXXXXXXXXXXXXXXXXX   +++++++++",
"+++++++++...oooooooooooooooooXXXXXXXXXXXXXXXXXXXXXXX   +++++++++",
"++++++++++++...oooooooooooooXXXXXXXXXXXXXXXXXXXXX   ++++++++++++",
"++++++++++++...ooooooooooXXXXXXXXXXXXXXXXXXXXXXXX   ++++++++++++",
"++++++++++++...ooooooooXXXXXXXXXXXXXXXXXXXXXXXXXX   ++++++++++++",
"+++++++++++++++   ooooXXXXXXXXXXXXXXXXXXXXXXXX   +++++++++++++++",
"+++++++++++++++   oooXXXXXXXXXXXXXXXXXXXXXXXXX   +++++++++++++++",
"+++++++++++++++   ooXXXXXXXXXXXXXXXXXXXXXXXXXX   +++++++++++++++",
"+++++++++++++++   oXXXXXXXXXXX    XXXXXXXXXXXX   +++++++++++++++",
"+++++++++++++++   XXXXXXXXXXXX    XXXXXXXXXXXX   +++++++++++++++",
"+++++++++++++++   XXXXXXXXXXXX    XXXXXXXXXXXX   +++++++++++++++",
"+++++++++++++++   XXXXXXXXX   ++++   XXXXXXXXX   +++++++++++++++",
"+++++++++++++++   XXXXXXXXX   ++++   XXXXXXXXX   +++++++++++++++",
"+++++++++++++++   XXXXXXXXX   ++++   XXXXXXXXX   +++++++++++++++",
"+++++++++++++++   XXXXXXXXX++++++++++XXXXXXXXX   +++++++++++++++",
"+++++++++++++++   XXXXXX   ++++++++++   XXXXXX   +++++++++++++++",
"+++++++++++++++   XXXXXX   ++++++++++   XXXXXX   +++++++++++++++",
"+++++++++++++++   XXXXXX   ++++++++++   XXXXXX   +++++++++++++++",
"++++++++++++   XXXXXX   ++++++++++++++++   XXXXX    ++++++++++++",
"++++++++++++   XXXXXX   ++++++++++++++++   XXXXX    ++++++++++++",
"++++++++++++   XXXXXX   ++++++++++++++++   XXXXX    ++++++++++++",
"++++++++++++   XXX   ++++++++++++++++++++++   XX    ++++++++++++",
"++++++++++++   XXX   ++++++++++++++++++++++   XX    ++++++++++++",
"++++++++++++   XXX   ++++++++++++++++++++++   XX    ++++++++++++",
"++++++++++++      ++++++++++++++++++++++++++++      ++++++++++++",
"++++++++++++      ++++++++++++++++++++++++++++      ++++++++++++",
"++++++++++++      ++++++++++++++++++++++++++++      ++++++++++++",
"++++++++++++++++++++++++++++++++++++++++++++++++++++++++++++++++",
"++++++++++++++++++++++++++++++++++++++++++++++++++++++++++++++++",
"++++++++++++++++++++++++++++++++++++++++++++++++++++++++++++++++",
"++++++++++++++++++++++++++++++++++++++++++++++++++++++++++++++++",
"++++++++++++++++++++++++++++++++++++++++++++++++++++++++++++++++"
};
