/* XPM */
static char *result[] = {
/* columns rows colors chars-per-pixel */
"64 64 5 1 ",
"  c #6ABE30",
". c #FBF236",
"X c #99E550",
"o c #5FCDE4",
"O c None",
/* pixels */
"OOOOOOOOOOOOOOOOOOOOOOOOOOO..........OOOOOOOOOOOOOOOOOOOOOOOOOOO",
"OOOOOOOOOOOOOOOOOOOOOOO....          ....OOOOOOOOOOOOOOOOOOOOOOO",
"OOOOOOOOOOOOOOOOOOOO...                  ...OOOOOOOOOOOOOOOOOOOO",
"OOOOOOOOOOOOOOOOOO..                        ..OOOOOOOOOOOOOOOOOO",
"OOOOOOOOOOOOOOOO..         ...........        ..OOOOOOOOOOOOOOOO",
"OOOOOOOOOOOOOOO.       ....XXXXXXXXXXX....      .OOOOOOOOOOOOOOO",
"OOOOOOOOOOOOO..      ..XXXXXXXXXXXXXXXXXXX..     ..OOOOOOOOOOOOO",
"OOOOOOOOOOOO.      ..XXXXXXXXXXXXXXXXXXXXXXX..     .OOOOOOOOOOOO",
"OOOOOOOOOOO.     ..XXXXXXXXXXXXXXXXXXXXXXXXXXX..    .OOOOOOOOOOO",
"OOOOOOOOOO.     .XXXXXXXXXXXXXXXXXXXXXXXXXXXXXXX.    .OOOOOOOOOO",
"OOOOOOOOO.     .XXXXXXXXXXXXXXXXXXXXXXXXXXXXXXXXX.    .OOOOOOOOO",
"OOOOOOOO.    ..XXXXXXXXXXXXXXXXXXXXXXXXXXXXXXXXXXX..   .OOOOOOOO",
"OOOOOOO.    .XXXXXXXXXXXXXXXXXXXXXXXXXXXXXXXXXXXXXXX.   .OOOOOOO",
"OOOOOO.    .XXXXXXXXXXXXXXXXXXXXXXXXXXXXXXXXXXXXXXXXX.   .OOOOOO",
"OOOOOO.    .XXXXXXXXXXXXXXXXXXXXXXXXXXXXXXXXXXXXXXXXX.   .OOOOOO",
"OOOOO.    .XXXXXXXXXXXXXXXXXXXXXXXXXXXXXXXXXXXXXXXXXXX.   .OOOOO",
"OOOO.    .XXXXXXXXXXXXXXXXXXX.......XXXXXXXXXXXXXXXXXXX.   .OOOO",
"OOOO.   .XXXXXXXXXXXXXXXXX...ooooooo...XXXXXXXXXXXXXXXXX.  .OOOO",
"OOO.    .XXXXXXXXXXXXXXX..ooooooooooooo..XXXXXXXXXXXXXXX.   .OOO",
"OOO.   .XXXXXXXXXXXXXXX.ooooooooooooooooo.XXXXXXXXXXXXXXX.  .OOO",
"OO.    .XXXXXXXXXXXXX..ooooooooooooooooooo..XXXXXXXXXXXXX.   .OO",
"OO.   .XXXXXXXXXXXXX.ooooooooooooooooooooooo.XXXXXXXXXXXXX.  .OO",
"OO.   .XXXXXXXXXXXXX.ooooooooooooooooooooooo.XXXXXXXXXXXXX.  .OO",
"O.   .XXXXXXXXXXXXX.ooooooooooooooooooooooooo.XXXXXXXXXXXXX.  .O",
"O.   .XXXXXXXXXXXX.ooooooooooooooooooooooooooo.XXXXXXXXXXXX.  .O",
"O.   .XXXXXXXXXXXX.ooooooooooooooooooooooooooo.XXXXXXXXXXXX.  .O",
"O.   .XXXXXXXXXXX.ooooooooooooooooooooooooooooo.XXXXXXXXXXX.  .O",
".   .XXXXXXXXXXXX.ooooooooooooooooooooooooooooo.XXXXXXXXXXXX.  .",
".   .XXXXXXXXXXXX.ooooooooooooooooooooooooooooo.XXXXXXXXXXXX.  .",
".   .XXXXXXXXXXX.ooooooooooooooooooooooooooooooo.XXXXXXXXXXX.  .",
".   .XXXXXXXXXXX.ooooooooooooooooooooooooooooooo.XXXXXXXXXXX.  .",
".   .XXXXXXXXXXX.ooooooooooooooooooooooooooooooo.XXXXXXXXXXX.  .",
".   .XXXXXXXXXXX.ooooooooooooooooooooooooooooooo.XXXXXXXXXXX.  .",
".   .XXXXXXXXXXX.ooooooooooooooooooooooooooooooo.XXXXXXXXXXX.  .",
".   .XXXXXXXXXXX.ooooooooooooooooooooooooooooooo.XXXXXXXXXXX.  .",
".   .XXXXXXXXXXX.ooooooooooooooooooooooooooooooo.XXXXXXXXXXX.  .",
".   .XXXXXXXXXXXX.ooooooooooooooooooooooooooooo.XXXXXXXXXXXX.  .",
"O.  .XXXXXXXXXXXX.ooooooooooooooooooooooooooooo.XXXXXXXXXXXX. .O",
"O.   .XXXXXXXXXXX.ooooooooooooooooooooooooooooo.XXXXXXXXXXX.  .O",
"O.   .XXXXXXXXXXXX.ooooooooooooooooooooooooooo.XXXXXXXXXXXX.  .O",
"O.   .XXXXXXXXXXXX.ooooooooooooooooooooooooooo.XXXXXXXXXXXX.  .O",
"OO.  .XXXXXXXXXXXXX.ooooooooooooooooooooooooo.XXXXXXXXXXXXX. .OO",
"OO.   .XXXXXXXXXXXXX.ooooooooooooooooooooooo.XXXXXXXXXXXXX.  .OO",
"OO.   .XXXXXXXXXXXXX.ooooooooooooooooooooooo.XXXXXXXXXXXXX.  .OO",
"OOO.   .XXXXXXXXXXXXX..ooooooooooooooooooo..XXXXXXXXXXXXX.  .OOO",
"OOO.   .XXXXXXXXXXXXXXX.ooooooooooooooooo.XXXXXXXXXXXXXXX.  .OOO",
"OOOO.   .XXXXXXXXXXXXXXX..ooooooooooooo..XXXXXXXXXXXXXXX.  .OOOO",
"OOOO.   .XXXXXXXXXXXXXXXXX...ooooooo...XXXXXXXXXXXXXXXXX.  .OOOO",
"OOOOO.   .XXXXXXXXXXXXXXXXXXX.......XXXXXXXXXXXXXXXXXXX.  .OOOOO",
"OOOOOO.   .XXXXXXXXXXXXXXXXXXXXXXXXXXXXXXXXXXXXXXXXXXX.  .OOOOOO",
"OOOOOO.    .XXXXXXXXXXXXXXXXXXXXXXXXXXXXXXXXXXXXXXXXX.   .OOOOOO",
"OOOOOOO.   .XXXXXXXXXXXXXXXXXXXXXXXXXXXXXXXXXXXXXXXXX.  .OOOOOOO",
"OOOOOOOO.   .XXXXXXXXXXXXXXXXXXXXXXXXXXXXXXXXXXXXXXX.  .OOOOOOOO",
"OOOOOOOOO.   ..XXXXXXXXXXXXXXXXXXXXXXXXXXXXXXXXXXX..  .OOOOOOOOO",
"OOOOOOOOOO.    .XXXXXXXXXXXXXXXXXXXXXXXXXXXXXXXXX.   .OOOOOOOOOO",
"OOOOOOOOOOO.    .XXXXXXXXXXXXXXXXXXXXXXXXXXXXXXX.   .OOOOOOOOOOO",
"OOOOOOOOOOOO.    ..XXXXXXXXXXXXXXXXXXXXXXXXXXX..   .OOOOOOOOOOOO",
"OOOOOOOOOOOOO..    ..XXXXXXXXXXXXXXXXXXXXXXX..   ..OOOOOOOOOOOOO",
"OOOOOOOOOOOOOOO.     ..XXXXXXXXXXXXXXXXXXX..    .OOOOOOOOOOOOOOO",
"OOOOOOOOOOOOOOOO..     ....XXXXXXXXXXX....    ..OOOOOOOOOOOOOOOO",
"OOOOOOOOOOOOOOOOOO..       ...........      ..OOOOOOOOOOOOOOOOOO",
"OOOOOOOOOOOOOOOOOOOO...                  ...OOOOOOOOOOOOOOOOOOOO",
"OOOOOOOOOOOOOOOOOOOOOOO....          ....OOOOOOOOOOOOOOOOOOOOOOO",
"OOOOOOOOOOOOOOOOOOOOOOOOOOO..........OOOOOOOOOOOOOOOOOOOOOOOOOOO"
};
