/* XPM */
static char *result[] = {
/* columns rows colors chars-per-pixel */
"64 64 3 1 ",
"  c #3F3F74",
". c #5B6EE1",
"X c #639BFF",
/* pixels */
"       ......XXXX..XXXX......XXXXX..XXXX......XXX..XXXX......XX ",
"       ......XXXX..XXXX......XXXXX..XXXX......XXX..XXXX......XX ",
"       ......XXXX..XXXX......XXXXX..XXXX......XXX..XXXX......XX ",
"       ......XXXX..XXXX......XXXXX..XXXX.....XXXX..XXXX......XX ",
"       .....XXXXX..XXXX.....XXXXXX..XXX......XXXX..XXXX.....XXX ",
"      ......XXXXX..XXX......XXXXXX..XXX......XXXX..XXX......XXX ",
"      ......XXXXX..XXX......XXXXXX..XXX......XXXX..XXX......XXX ",
"      ......XXXXX..XXX......XXXXXX..XXX......XXXX..XXX......XXX ",
"      ......XXXXX..XXX......XXXXXX..XXX......XXXX..XXX......XX  ",
"      ......XXXXX..XXX......XXXXXX..XXX......XXXX..XXX......XX  ",
"      ......XXXXX..XXX......XXXXXX..XXX.....XXXXX..XXX......XX  ",
"      .....XXXXXX..XXX.....XXXXXX...XXX.....XXXXX..XXX.....XXX  ",
"      .....XXXXX...XXX.....XXXXXX...XXX.....XXXX...XXX.....XXX  ",
"      .....XXXXX...XXX.....XXXXX....XXX.....XXXX...XXX.....XXX  ",
"      .....XXXX....XXX.....XXXX....XXX......XXXX...XXX.....XXX  ",
"     ......XXXX...XXX......XXXX...XXXX......XXXX..XXX......XXX  ",
"     ......XXXX..XXXX......XXXX...XXXX......XXXX.XXXX......XXX  ",
"     ......XXXX..XXXX......XXXX...XXXX......XXXX.XXXX......XXX  ",
"     ......XXXX..XXXX......XXXX...XXXX.....XXXX..XXXX......XXX  ",
"     .....XXXX...XXXX.....XXXX....XXXX.....XXXX..XXXX.....XXXX  ",
"     .....XXXX...XXXX.....XXXX....XXXX.....XXXX..XXXX.....XXXX  ",
"     .....XXXX...XXXX.....XXXX....XXXX.....XXXX..XXXX.....XXX   ",
"     .....XXXX...XXXX.....XXXX....XXXX.....XXXX..XXXX.....XXX   ",
"     .....XXXX...XXXX.....XXXX....XXXX.....XXXX..XXXX.....XXX   ",
"     .....XXXX...XXXX.....XXXX....XXX......XXXX..XXXX.....XXX   ",
"    ......XXXX...XXX......XXXX....XXX.....XXXXX..XXX......XXX   ",
"    .....XXXXX...XXX.....XXXXX....XXX.....XXXXX..XXX.....XXXX   ",
"    .....XXXXX...XXX.....XXXXX....XXX.....XXXXX..XXX.....XXXX   ",
"    .....XXXXX...XXX.....XXXXX....XXX.....XXXX...XXX.....XXXX   ",
"    .....XXXX....XXX.....XXXX.....XXX.....XXXX...XXX.....XXXX   ",
"    .....XXXX....XXX.....XXXX.....XXX.....XXXX...XXX.....XXXX   ",
"    .....XXXX..X.XXX.....XXXX..X.XXXX.....XXXX...XXX.....XXXX   ",
"    .....XXXX..XXXXX.....XXXX..X.XXXX....XXXXX..XXXX.....XXXX   ",
"    ....XXXXX..XXXXX....XXXXX..XXXXXX....XXXXX..XXXX....XXXX    ",
"    ....XXXXX..XXXXX....XXXXX..XXXXX.....XXXXX..XXXX....XXXX    ",
"   .....XXXXX..XXXX.....XXXXX..XXXXX.....XXXXX..XXX.....XXXX    ",
"   .....XXXXX..XXXX.....XXXXX..XXXXX.....XXXXX..XXX.....XXXX    ",
"   .....XXXXX..XXXX.....XXXXX..XXXXX.....XXXXX..XXX.....XXXX    ",
"   .....XXXXX..XXXX.....XXXXX..XXXXX.....XXXX...XXX.....XXXX    ",
"   .....XXXX...XXXX.....XXXX...XXXXX....XXXXX...XXX.....XXXX    ",
"   ....XXXXX...XXXX....XXXXX...XXXXX....XXXXX..XXXX....XXXXX    ",
"   ....XXXXX..XXXXX....XXXXX..XXXXXX....XXXXX..XXXX....XXXXX    ",
"   ....XXXXX..XXXXX....XXXXX..XXXXXX....XXXXX..XXXX....XXXXX    ",
"   ....XXXXX..XXXXX....XXXXX..XXXXXX....XXXXX..XXXX....XXXXX    ",
"   ....XXXXX..XXXXX....XXXXX..XXXXX.....XXXXX..XXXX....XXXXX    ",
"  .....XXXXX..XXXX.....XXXXX..XXXXX.....XXXXX..XXX.....XXXXX    ",
"  .....XXXXX..XXXX.....XXXXX..XXXXX....XXXXXX..XXX.....XXXX     ",
"  ....XXXXXX..XXXX....XXXXXX..XXXXX....XXXXXX..XXX....XXXXX     ",
"  ....XXXXXX..XXXX....XXXXXX..XXXXX....XXXXX...XXX....XXXXX     ",
"  ....XXXXX...XXXX....XXXXX...XXXXX....XXXXX...XXX....XXXXX     ",
"  ....XXXXX...XXXX....XXXXX...XXXXX....XXXXX..XXXX....XXXXX     ",
"  ....XXXXX..XXXXX....XXXXX..XXXXXX....XXXXX..XXXX....XXXXX     ",
"  ....XXXXX..XXXXX....XXXXX..XXXXXX....XXXXX..XXXX....XXXXX     ",
"  ....XXXXX..XXXXX....XXXXX..XXXXXX....XXXXX..XXXX....XXXXX     ",
"  ....XXXXX..XXXXX....XXXXX..XXXXX....XXXXXX..XXXX....XXXXX     ",
" ....XXXXXX..XXXX....XXXXXX..XXXXX....XXXXXX..XXX....XXXXXX     ",
" ....XXXXXX..XXXX....XXXXXX..XXXXX....XXXXXX..XXX....XXXXXX     ",
" ....XXXXXX..XXXX....XXXXXX..XXXXX....XXXXXX..XXX....XXXXXX     ",
" ....XXXXXX..XXXX....XXXXXX..XXXXX....XXXXX...XXX....XXXXXX     ",
" ....XXXXX...XXXX....XXXXX...XXXXX....XXXXX...XXX....XXXXX      ",
" ....XXXXX...XXXX....XXXXX...XXXXX....XXXXX..XXXX....XXXXX      ",
" ....XXXXX..XXXXX....XXXXX..XXXXXX...XXXXXX..XXXX....XXXXX      ",
" ...XXXXXX..XXXXX...XXXXXX..XXXXXX...XXXXXX..XXXX...XXXXXX      ",
" ...XXXXXX..XXXXX...XXXXXX..XXXXX...XXXXXX..XXXXX...XXXXXX      "
};
