/* XPM */
static char *result[] = {
/* columns rows colors chars-per-pixel */
"64 64 7 1 ",
"  c black",
". c #E96308",
"X c #DF7126",
"o c #C0BA2F",
"O c #EDE30C",
"+ c #FBF236",
"@ c None",
/* pixels */
"@@@@@@@@@@@@@@@@@@@@@@@@@@@@@@@@@@@@@@@@@@@@@@@@@@@@@@@@@@@@@@@@",
"@@@@@@@@@@@@@@@@@@@@@@@@@@@@@@@@@@@@@@@@@@@@@@@@@@@@@@@@@@@@@@@@",
"@@@@@@@@@@@@@@@@@@@@@@@@@@@@@@@@@@@@@@@@@@@@@@@@@@@@@@@@@@@@@@@@",
"@@@@@@@@@@@@@@@@@@@@@@@@@@@@@@@@@@@@@@@@@@@@@@@@@@@@@@@@@@@@@@@@",
"@@@@@@@@@@@@@@@@@@@@@@@@@@@@@@@@@@@@@@@@@@@@@@@@@@@@@@@@@@@@@@@@",
"@@@@@@@@@@@@@@@@@@@@@@@@@@@@@@@@@@@@@@@@@@@@@@@@@@@@@@@@@@@@@@@@",
"@@@@@@@@@@@@@@@@@@@@@@@@@@@@@@@@@@@@@@@@@@@@@@@@@@@@@@@@@@@@@@@@",
"@@@@@@@@@@@@@@@@@@@@@@@@@@@@@@@@@@@...@@@@@@@@@@@@@@@@@@@@@@@@@@",
"@@@@@@@@@@@@@@@@@@@@@@@@@@@@@@@@@@@...@@@@@@@@@@@@@@@@@@@@@@@@@@",
"@@@@@@@@@@@@@@@@@.....@@@@@@@@@@@@.......@@@@@@@@@@@@@@@@@@@@@@@",
"@@@@@@@@@@@@@@@@.........@@@@@@  .........@@@@@@@@@@@@@@@@@@@@@@",
"@@@@@@@@@@@@@@@@........          ...........@@@@@@@@@@@@@@@@@@@",
"@@@@@@@@@@@@@@@@.........      OOOO   .......@@@@@@@@@@@@@@@@@@@",
"@@@@@@@@@@@@@@@@@.....   OOOOOOOOOO   .....@@@@@@@@@@@@@@@@@@@@@",
"@@@@@@@@@@@@@@@@@.....   OOOOOOoooOOOO    @@@@@@@@@@@@@@@@@@@@@@",
"@@@@@@@@@@@@@@@@@@...    OOOOOOooooOOO    @@@@@@@@@@@@@@@@@@@@@@",
"@@@@@@@@@@@@@@@@@@...    OOOOOOooooOOO    @@@@@@@@@@@@@@@@@@@@@@",
"@@@@@@@@@@@@@@@@@@@@@    OOOooOooooOOOOOOO   @@@@@@@@@@@@@@@@@@@",
"@@@@@@@@@@@@@@@@@@   OOOOOOOoooooooOOOOOOO   @@@@@@@@@@@@@@@@@@@",
"@@@@@@@@@@@@@@@@@@   OOOOOooooooooooooOOOOOOO  @@@@@@@@@@@@@@@@@",
"@@@@@@@@@@@@@@@@  oooOOOooooooooooooooOOOOOOO  @@@@@@@@@@@@@@@@@",
"@@@@@@@@@@@@@@@@  oooOOOoooooooooooooOOOOO   @@@@@@@@@@@@@@@@@@@",
"@@@@@@@@@@@@@@@@@@   OOOoooooooooooooOOOOO   @@@@@@@@@@@@@@@@@@@",
"@@@@@@@@@@@@@@@@@@   OOOoooooooooooooOoOO @@@@@@@@@@@@@@@@@@@@@@",
"@@@@@@@@@@@@@@@@@@   OOOoooooooooooooOoOO @@@@@@@@@@@@@@@@@@@@@@",
"@@@@@@@@@@@@@@@@@@@@@ OOOOOOOOOooooooooOO @@@@@@@@@@@@@@@@@@@@@@",
"@@@@@@@@@@@@@@@@@@@@@ OOOoooOOOooOoooooOO    @@@@@@@@@@@@@@@@@@@",
"@@@@@@@@@@@@@@@@@@    OOOOoooooooOoooooOOOO   @@@@@@@@@@@@@@@@@@",
"@@@@@@@@@@@@@@@@@   OOOOOOOOOOOOOOoooooOOOOOO @@@@@@@@@@@@@@@@@@",
"@@@@@@@@@@@@@@@@@ OOOOOOOOOOoOOOOO+++++OOOOOO @@@@@@@@@@@@@@@@@@",
"@@@@@@@@@@@@@@@@    OOOOOOOO+OOOOOO++++++OOOOO @@@@@@@@@@@@@@@@@",
"@@@@@@@@@@@@@@@@@@   OOOOOOOO+OOOOO++++++OOOOO @@@@@@@@@@@@@@@@@",
"@@@@@@@@@@@@@@@@@@   OOOOOOOO+OOOOO++++++OOOOO @@@@@@@@@@@@@@@@@",
"@@@@@@@@@@@@@@@@@@@@  OOOOOOO+OOOOO++++++OO    @@@@@@@@@@@@@@@@@",
"@@@@@@@@@@@@@@@@@@@@  OOOOOO++OOOOO++++++     @@@@@@@@@@@@@@@@@@",
"@@@@@@@@@@@@@@@@@@@@@@   OOO++OOO++++OO   @@@@@@@@@@@@@@@@@@@@@@",
"@@@@@@@@@@@@@@@@@@@@@@   OOOOOOOOO+OOOO  @@@@@@@@@@@@@@@@@@@@@@@",
"@@@@@@@@@@@@@@@@@@@@@@      OOOOOOOOOOO  @@@@@@@@@@@@@@@@@@@@@@@",
"@@@@@@@@@@@@@@@@@@@@@@@@O   oOOOOOOOOOO   @@@@@@@@@@@@@@@@@@@@@@",
"@@@@@@@@@@@@@@@@@@@@@@@@  ooooOOOOOOOOOoo @@@@@@@@@@@@@@@@@@@@@@",
"@@@@@@@@@@@@@@@@@@@@@@@@  ooooOOOOOOOOOoo @@@@@@@@@@@@@@@@@@@@@@",
"@@@@@@@@@@@@@@@@@@@@@@    oooOOOOOOOOOOOO @@@@@@@@@@@@@@@@@@@@@@",
"@@@@@@@@@@@@@@@@@@@@@@   oooOOOOOOOOOOOOO @@@@@@@@@@@@@@@@@@@@@@",
"@@@@@@@@@@@@@@@@@@@@@@  ooooooOOOOOOOOOOO @@@@@@@@@@@@@@@@@@@@@@",
"@@@@@@@@@@@@@@@@@@@@@@   oOOoOOOOOOOOOOOO @@@@@@@@@@@@@@@@@@@@@@",
"@@@@@@@@@@@@@@@@@@@@@@@@ oOOOOOOOOOOOOOOO @@@@@@@@@@@@@@@@@@@@@@",
"@@@@@@@@@@@@@@@@@@@@@@@@ oOOOOOOOOOOOOO  @@@@@@@@@@@@@@@@@@@@@@@",
"@@@@@@@@@@@@@@@@@@@@@@@@  OOO    O   OO  @@@@@@@@@@@@@@@@@@@@@@@",
"@@@@@@@@@@@@@@@@@@@@@@@@  OOO    O   OO  @@@@@@@@@@@@@@@@@@@@@@@",
"@@@@@@@@@@@@@@@@@@@@@@@@@   OOO  O OOO @@@@@@@@@@@@@@@@@@@@@@@@@",
"@@@@@@@@@@@@@@@@@@@@@@@@@   oooOOOOOOO @@@@@@@@@@@@@@@@@@@@@@@@@",
"@@@@@@@@@@@@@@@@@@@@@@@@@@@@ oXXXXX   @@@@@@@@@@@@@@@@@@@@@@@@@@",
"@@@@@@@@@@@@@@@@@@@@@@@@@@@@@ XXXX   @@@@@@@@@@@@@@@@@@@@@@@@@@@",
"@@@@@@@@@@@@@@@@@@@@@@@@@@@@@@ XXX @@@@@@@@@@@@@@@@@@@@@@@@@@@@@",
"@@@@@@@@@@@@@@@@@@@@@@@@@@@@@@@@@@@@@@@@@@@@@@@@@@@@@@@@@@@@@@@@",
"@@@@@@@@@@@@@@@@@@@@@@@@@@@@@@@@@@@@@@@@@@@@@@@@@@@@@@@@@@@@@@@@",
"@@@@@@@@@@@@@@@@@@@@@@@@@@@@@@@@@@@@@@@@@@@@@@@@@@@@@@@@@@@@@@@@",
"@@@@@@@@@@@@@@@@@@@@@@@@@@@@@@@@@@@@@@@@@@@@@@@@@@@@@@@@@@@@@@@@",
"@@@@@@@@@@@@@@@@@@@@@@@@@@@@@@@@@@@@@@@@@@@@@@@@@@@@@@@@@@@@@@@@",
"@@@@@@@@@@@@@@@@@@@@@@@@@@@@@@@@@@@@@@@@@@@@@@@@@@@@@@@@@@@@@@@@",
"@@@@@@@@@@@@@@@@@@@@@@@@@@@@@@@@@@@@@@@@@@@@@@@@@@@@@@@@@@@@@@@@",
"@@@@@@@@@@@@@@@@@@@@@@@@@@@@@@@@@@@@@@@@@@@@@@@@@@@@@@@@@@@@@@@@",
"@@@@@@@@@@@@@@@@@@@@@@@@@@@@@@@@@@@@@@@@@@@@@@@@@@@@@@@@@@@@@@@@",
"@@@@@@@@@@@@@@@@@@@@@@@@@@@@@@@@@@@@@@@@@@@@@@@@@@@@@@@@@@@@@@@@"
};
