/* XPM */
static char *result[] = {
/* columns rows colors chars-per-pixel */
"64 64 7 1 ",
"  c black",
". c #E96308",
"X c #DF7126",
"o c #C0BA2F",
"O c #EDE30C",
"+ c #FBF236",
"@ c None",
/* pixels */
"@@@@@@@@@@@@@@@@@@@@@@@@@@@@@@@@@@@@@@@@@@@@@@@@@@@@@@@@@@@@@@@@",
"@@@@@@@@@@@@@@@@@@@@@@@@@@@@@@@@@@@@@@@@@@@@@@@@@@@@@@@@@@@@@@@@",
"@@@@@@@@@@@@@@@@@@@@@@@@@@@@@@@@@@@@@@@@@@@@@@@@@@@@@@@@@@@@@@@@",
"@@@@@@@@@@@@@@@@@@@@@@@@@@@@@@@@@@@@@@@@@@@@@@@@@@@@@@@@@@@@@@@@",
"@@@@@@@@@@@@@@@@@@@@@@@@@@@@@@@@@@@@@@@@@@@@@@@@@@@@@@@@@@@@@@@@",
"@@@@@@@@@@@@@@@@@@@@@@@@@@@@@@@@@@@@@@@@@@@@@@@@@@@@@@@@@@@@@@@@",
"@@@@@@@@@@@@@@@@@@@@@@@@@@@@@@@@@@@@@@@@@@@@@@@@@@@@@@@@@@@@@@@@",
"@@@@@@@@@@@@@@@@@@@@@@@@@@@@@@@@@@@@@@@@@@@@@@@@@@@@@@@@@@@@@@@@",
"@@@@@@@@@@@@@@@@@@@@@@@@@@@@@@@@@@@@@@@@@@@@@@@@@@@@@@@@@@@@@@@@",
"@@@@@@@@@@@@@@@@@@@@@@@@@@@@@@@@@@@@@@@@@@@@@@@@@@@@@@@@@@@@@@@@",
"@@@@@@@@@@@@@@@@@@@@@@@@@@@@@@  XXX @@@@@@@@@@@@@@@@@@@@@@@@@@@@",
"@@@@@@@@@@@@@@@@@@@@@@@@@@@@@@  XXX @@@@@@@@@@@@@@@@@@@@@@@@@@@@",
"@@@@@@@@@@@@@@@@@@@@@@@@@@@@@   XXX  @@@@@@@@@@@@@@@@@@@@@@@@@@@",
"@@@@@@@@@@@@@@@@@@@@@@@@@@@    XXXXX @@@@@@@@@@@@@@@@@@@@@@@@@@@",
"@@@@@@@@@@@@@@@@@@@@@@@@@@@  OOXXXXXo  @@@@@@@@@@@@@@@@@@@@@@@@@",
"@@@@@@@@@@@@@@@@@@@@@@@@@@ OOO OOO oooo @@@@@@@@@@@@@@@@@@@@@@@@",
"@@@@@@@@@@@@@@@@@@@@@@@@@@ OOO OOO oooo @@@@@@@@@@@@@@@@@@@@@@@@",
"@@@@@@@@@@@@@@@@@@@@@@@@@ OOO  O   OO   @@@@@@@@@@@@@@@@@@@@@@@@",
"@@@@@@@@@@@@@@@@@@@@@@@@@ OOOOOOOOOOOOO  @@@@@@@@@@@@@@@@@@@@@@@",
"@@@@@@@@@@@@@@@@@@@@@@@@ OOOOOOOOOOOOOOo @@@@@@@@@@@@@@@@@@@@@@@",
"@@@@@@@@@@@@@@@@@@@@@@@@ OOOOOOOOOOOOOOo @@@@@@@@@@@@@@@@@@@@@@@",
"@@@@@@@@@@@@@@@@@@@@@@@@ OOOOOOOOOOOoOOo  @@@@@@@@@@@@@@@@@@@@@@",
"@@@@@@@@@@@@@@@@@@@@@@@@ OOOOOOOOOOOoOOo  @@@@@@@@@@@@@@@@@@@@@@",
"@@@@@@@@@@@@@@@@@@@@@@@@ OOOOOOOOOOoooooo @@@@@@@@@@@@@@@@@@@@@@",
"@@@@@@@@@@@@@@@@@@@@@@@@ OOOOOOOOOOOOooo  @@@@@@@@@@@@@@@@@@@@@@",
"@@@@@@@@@@@@@@@@@@@@@@@@ oOOOOOOOOOOooo   @@@@@@@@@@@@@@@@@@@@@@",
"@@@@@@@@@@@@@@@@@@@@@@@@  OOOOOOOOOoooo  @@@@@@@@@@@@@@@@@@@@@@@",
"@@@@@@@@@@@@@@@@@@@@@@@@@ OOOOOOOOOOo   O@@@@@@@@@@@@@@@@@@@@@@@",
"@@@@@@@@@@@@@@@@@@@@@@@@@ OOOOOOOOOOo   O@@@@@@@@@@@@@@@@@@@@@@@",
"@@@@@@@@@@@@@@@@@@@@@@@@@ OOOO+OOOOOO     @@@@@@@@@@@@@@@@@@@@@@",
"@@@@@@@@@@@@@@@@@@@@@@@@  OOO+++OOOOOOOO  @@@@@@@@@@@@@@@@@@@@@@",
"@@@@@@@@@@@@@@@@@@@@     +++++OOOOO++OOO  @@@@@@@@@@@@@@@@@@@@@@",
"@@@@@@@@@@@@@@@@@@@   OOO+++++OOOOO++OOOOO   @@@@@@@@@@@@@@@@@@@",
"@@@@@@@@@@@@@@@@@@@ OOOOO+++++OOOOO+OOOOOO   @@@@@@@@@@@@@@@@@@@",
"@@@@@@@@@@@@@@@@@@@ OOOOO+++++OOOOO+OOOOOO   @@@@@@@@@@@@@@@@@@@",
"@@@@@@@@@@@@@@@@@@@ OOOOO+++++OOOOO+OOOOOOOO  @@@@@@@@@@@@@@@@@@",
"@@@@@@@@@@@@@@@@@@@ OOOOO+++++OOOOO+OOOOOOOO  @@@@@@@@@@@@@@@@@@",
"@@@@@@@@@@@@@@@@@@@ OOOOOoooooOOOOOoOOOOOOOOO  @@@@@@@@@@@@@@@@@",
"@@@@@@@@@@@@@@@@@@@  OOOOoooooOOOOOOOOOOOOOO  @@@@@@@@@@@@@@@@@@",
"@@@@@@@@@@@@@@@@@@@  OOOOoooooOOOOOOOOOOOOOO  @@@@@@@@@@@@@@@@@@",
"@@@@@@@@@@@@@@@@@@@@    OoooooOooooooOOOO    @@@@@@@@@@@@@@@@@@@",
"@@@@@@@@@@@@@@@@@@@@@@  OoooooooOOOOoooOO @@@@@@@@@@@@@@@@@@@@@@",
"@@@@@@@@@@@@@@@@@@@@@@  OoOoooooOOOOOOOOO @@@@@@@@@@@@@@@@@@@@@@",
"@@@@@@@@@@@@@@@@@@@@  OOOOOoooooooooooooOO   @@@@@@@@@@@@@@@@@@@",
"@@@@@@@@@@@@@@@@@@@@  OOOOOoooooooooooooOO   @@@@@@@@@@@@@@@@@@@",
"@@@@@@@@@@@@@@@@@@@@  OOOOOoooooooooooooOO   @@@@@@@@@@@@@@@@@@@",
"@@@@@@@@@@@@@@@@@   OOOOOOooooooooooooooOOooo  @@@@@@@@@@@@@@@@@",
"@@@@@@@@@@@@@@@@@   OOOOOOooooooooooooooOOooo  @@@@@@@@@@@@@@@@@",
"@@@@@@@@@@@@@@@@@@@@  OOOOOOOooooooooOOOOO   @@@@@@@@@@@@@@@@@@@",
"@@@@@@@@@@@@@@@@@@@@  OOOOOOOoooooooOOOOOO   @@@@@@@@@@@@@@@@@@@",
"@@@@@@@@@@@@@@@@@@@@@@    OOOoooOOooOOO   @@@@@@@@@@@@@@@@@@@@@@",
"@@@@@@@@@@@@@@@@@@@@@@    OOOoooOOooOOO   @@@@@@@@@@@@@@@@@@@@@@",
"@@@@@@@@@@@@@@@@@@@@@@    OOOOooOOOOOOO   ...@@@@@@@@@@@@@@@@@@@",
"@@@@@@@@@@@@@@@@@@@@@.....   OOOOOOOOOO  .....@@@@@@@@@@@@@@@@@@",
"@@@@@@@@@@@@@@@@@@@@......   OOOOOOOOOO  .....@@@@@@@@@@@@@@@@@@",
"@@@@@@@@@@@@@@@@@@@@.........          .......@@@@@@@@@@@@@@@@@@",
"@@@@@@@@@@@@@@@@@@@@@.........         .......@@@@@@@@@@@@@@@@@@",
"@@@@@@@@@@@@@@@@@@@@@.........         .......@@@@@@@@@@@@@@@@@@",
"@@@@@@@@@@@@@@@@@@@@@@.......@@@@@@@@.........@@@@@@@@@@@@@@@@@@",
"@@@@@@@@@@@@@@@@@@@@@@@@@..@@@@@@@@@@@@@.....@@@@@@@@@@@@@@@@@@@",
"@@@@@@@@@@@@@@@@@@@@@@@@@@@@@@@@@@@@@@@@@@@@@@@@@@@@@@@@@@@@@@@@",
"@@@@@@@@@@@@@@@@@@@@@@@@@@@@@@@@@@@@@@@@@@@@@@@@@@@@@@@@@@@@@@@@",
"@@@@@@@@@@@@@@@@@@@@@@@@@@@@@@@@@@@@@@@@@@@@@@@@@@@@@@@@@@@@@@@@",
"@@@@@@@@@@@@@@@@@@@@@@@@@@@@@@@@@@@@@@@@@@@@@@@@@@@@@@@@@@@@@@@@"
};
