/* XPM */
static char *result[] = {
/* columns rows colors chars-per-pixel */
"64 64 7 1 ",
"  c black",
". c #E96308",
"X c #DF7126",
"o c #C0BA2F",
"O c #EDE30C",
"+ c #FBF236",
"@ c None",
/* pixels */
"@@@@@@@@@@@@@@@@@@@@@@@@@@@@@@@@@@@@@@@@@@@@@@@@@@@@@@@@@@@@@@@@",
"@@@@@@@@@@@@@@@@@@@@@@@@@@@@@@@@@@@@@@@@@@@@@@@@@@@@@@@@@@@@@@@@",
"@@@@@@@@@@@@@@@@@@@@@@@@@@@@@@@@@@@@@@@@@@@@@@@@@@@@@@@@@@@@@@@@",
"@@@@@@@@@@@@@@@@@@@@@@@@@@@@@@@@@@@@@@@@@@@@@@@@@@@@@@@@@@@@@@@@",
"@@@@@@@@@@@@@@@@@@@@@@@@@@@@@@@@@@@@@@@@@@@@@@@@@@@@@@@@@@@@@@@@",
"@@@@@@@@@@@@@@@@@@@@@@@@@@@@@@@@@@@@@@@@@@@@@@@@@@@@@@@@@@@@@@@@",
"@@@@@@@@@@@@@@@@@@@@@@@@@@@@@@@@@@@        @@@@@@@@@@@@@@@@@@@@@",
"@@@@@@@@@@@@@@@@@@@@@@@@@@@@@@@@@@@        @@@@@@@@@@@@@@@@@@@@@",
"@@@@@@@@@@@@@@@@@@@@@@@@@@@@@@@@@@@        @@@@@@@@@@@@@@@@@@@@@",
"@@@@@@@@@@@@@@@@@@@@@@@@@@@@@@@@@  oooooooo  @@@@@@@@@@@@@@@@@@@",
"@@@@@@@@@@@@@@@@@@@@@@@@@@@@@@@@@  oooooooo  @@@@@@@@@@@@@@@@@@@",
"@@@@@@@@@@@@@@@@@@@@@@@@@@@@@@@@@  oooooooo  @@@@@@@@@@@@@@@@@@@",
"@@@@@@@@@@@@@@@@@@@@@@@@@@@@@@@@@  oooooooo  @@@@@@@@@@@@@@@@@@@",
"@@@@@@@@@@@@@@@@@@@@@@@@@@@@@@   ooOOOooOOOoo   @@@@@@@@@@@@@@@@",
"@@@@@@@@@@@@@@@@@@@@@@@@@@@@@@   ooOOOooOOOoo   @@@@@@@@@@@@@@@@",
"@@@@@@@@@@@@@@@@@@@@@@@@@@@@@@   ooOOOooOOOoo   @@@@@@@@@@@@@@@@",
"@@@@@@@@@@@@@@@@@@@@@@@@@@@@@@   OOOOOOO   oo   @@@@@@@@@@@@@@@@",
"@@@@@@@@@@@@@@@@@@@@@@@@@@@@@@   OOOOOOO   oo   @@@@@@@@@@@@@@@@",
"@@@@@@@@@@@@@@@@@@@@@@@@@@@@@@   OOOOOOO   oo   @@@@@@@@@@@@@@@@",
"@@@@@@@@@@@@@@@@@@@@@@@@@@@@@@   OOOOOoooooXXXXX  @@@@@@@@@@@@@@",
"@@@@@@@@@@@@@@@@@@@@@@@@@@@@@@   OOOOOoooooXXXXX  @@@@@@@@@@@@@@",
"@@@@@@@@@@@@@@@@@@@@@@@@@@@@@@   OOOOOoooooXXXXX  @@@@@@@@@@@@@@",
"@@@@@@@@@@@@@@@@@@@@@@@@@@@@@@@@@  OOOOOOOO     @@@@@@@@@@@@@@@@",
"@@@@@@@@@@@@@@@@@@@@@@@@@@@@@@@@@  OOOOOOOO     @@@@@@@@@@@@@@@@",
"@@@@@@@@@@@@@@@@@@@@@@@@@@@@@@@@@  OOOOOOOO     @@@@@@@@@@@@@@@@",
"@@@@@@@@@@@@@@@   @@@@@@@@@@@@@@@@@   OO   @@@@@@@@@@@@@@@@@@@@@",
"@@@@@@@@@@@@@@@   @@@@@@@@@@@@@@@@@   OO   @@@@@@@@@@@@@@@@@@@@@",
"@@@@@@@@@@@@@@@   @@@@@@@@@@@@@@@@@   OO   @@@@@@@@@@@@@@@@@@@@@",
"@@@@@@@@@@@@@  OOO  @@@@@@@@@@     OOOOO   @@@@@@@@@@@@@@@@@@@@@",
"@@@@@@@@@@@@@  OOO  @@@@@@@@@@     OOOOO   @@@@@@@@@@@@@@@@@@@@@",
"@@@@@@@@@@@@@  +++OO          +oooooooooOOO  @@@@@@@@@@@@@@@@@@@",
"@@@@@@@@@@@@@  +++OO          +oooooooooOOO  @@@@@@@@@@@@@@@@@@@",
"@@@@@@@@@@@@@  +++OO          +oooooooooOOO  @@@@@@@@@@@@@@@@@@@",
"@@@@@@@@@@@@@  +++++OOOOOOOOOOOOOOOOOOoooooOO   @@@@@@@@@@@@@@@@",
"@@@@@@@@@@@@@  +++++OOOOOOOOOOOOOOOOOOoooooOO   @@@@@@@@@@@@@@@@",
"@@@@@@@@@@@@@  +++++OOOOOOOOOOOOOOOoOOoooooOO   @@@@@@@@@@@@@@@@",
"@@@@@@@@@@@@@@@   +++++++++++++ooOooOOoooooOO   @@@@@@@@@@@@@@@@",
"@@@@@@@@@@@@@@@   +++++++++++++ooOoOOOoooooOO   @@@@@@@@@@@@@@@@",
"@@@@@@@@@@@@@@@   +++++++++++++ooOoOOOoooooOO   @@@@@@@@@@@@@@@@",
"@@@@@@@@@@@@@@@   +++++OOOOOOOOOOOoOOOoooooOO   @@@@@@@@@@@@@@@@",
"@@@@@@@@@@@@@@@   +++++OOOOOOOOOOOoOOOoooooOO   @@@@@@@@@@@@@@@@",
"@@@@@@@@@@@@@@@   +++++OOOOOOOOOOOoOOOoooooOO   @@@@@@@@@@@@@@@@",
"@@@@@@@@@@@@@@@@@@  +++++OOOOOOOOOooooooooo  @@@@@@@@@@@@@@@@@@@",
"@@@@@@@@@@@@@@@@@@  +++++OOOOOOOOOOoooooooo  @@@@@@@@@@@@@@@@@@@",
"@@@@@@@@@@@@@@@@@@  +++++OOOOOOOOOOoooooooo  @@@@@@@@@@@@@@@@@@@",
"@@@@@@@@@@@@@@@@@@  +++++++++++oooooooooOOO  @@@@@@@@@@@@@@@@@@@",
"@@@@@@@@@@@@@@@@@@  +++++++++++oooooooooOOO  @@@@@@@@@@@@@@@@@@@",
"@@@@@@@@@@@@@@@@@@@@     ++++++ooooooo     @@@@@@@@@@@@@@@@@@@@@",
"@@@@@@@@@@@@@@@@@@@@     ++++++ooooooo     @@@@@@@@@@@@@@@@@@@@@",
"@@@@@@@@@@@@@@@@@@@@     ++++++ooooooo     @@@@@@@@@@@@@@@@@@@@@",
"@@@@@@@@@@@@@@@@@@@@                       @@@@@@@@@@@@@@@@@@@@@",
"@@@@@@@@@@@@@@@@@@@@                       @@@@@@@@@@@@@@@@@@@@@",
"@@@@@@@@@@@@@@@@@@@@@....             ..@@@@@@@@@@@@@@@@@@@@@@@@",
"@@@@@@@@@@@@@@@@@@@@@XXXX          ...XX.@@@@@@@@@@@@@@@@@@@@@@@",
"@@@@@@@@@@@@@@@@@@@@@XXXX          ...XX.@@@@@@@@@@@@@@@@@@@@@@@",
"@@@@@@@@@@@@@@@@@@@@@XXXXX....@@@..XXXXXX..@@@@@@@@@@@@@@@@@@@@@",
"@@@@@@@@@@@@@@@@@@@@@XXXXXXX.@@@@XXXXXXXX..@@@@@@@@@@@@@@@@@@@@@",
"@@@@@@@@@@@@@@@@@@@@@@@X....@@@@@@XXXX...@@@@@@@@@@@@@@@@@@@@@@@",
"@@@@@@@@@@@@@@@@@@@@@@@X....@@@@@@XXXX...@@@@@@@@@@@@@@@@@@@@@@@",
"@@@@@@@@@@@@@@@@@@@@@@@@@@@@@@@@@@@@@@@@@@@@@@@@@@@@@@@@@@@@@@@@",
"@@@@@@@@@@@@@@@@@@@@@@@@@@@@@@@@@@@@@@@@@@@@@@@@@@@@@@@@@@@@@@@@",
"@@@@@@@@@@@@@@@@@@@@@@@@@@@@@@@@@@@@@@@@@@@@@@@@@@@@@@@@@@@@@@@@",
"@@@@@@@@@@@@@@@@@@@@@@@@@@@@@@@@@@@@@@@@@@@@@@@@@@@@@@@@@@@@@@@@",
"@@@@@@@@@@@@@@@@@@@@@@@@@@@@@@@@@@@@@@@@@@@@@@@@@@@@@@@@@@@@@@@@"
};
