/* XPM */
static char *result[] = {
/* columns rows colors chars-per-pixel */
"64 64 7 1 ",
"  c black",
". c #E96308",
"X c #DF7126",
"o c #C0BA2F",
"O c #EDE30C",
"+ c #FBF236",
"@ c None",
/* pixels */
"@@@@@@@@@@@@@@@@@@@@@@@@@@@@@@@@@@@@@@@@@@@@@@@@@@@@@@@@@@@@@@@@",
"@@@@@@@@@@@@@@@@@@@@@@@@@@@@@@@@@@@@@@@@@@@@@@@@@@@@@@@@@@@@@@@@",
"@@@@@@@@@@@@@@@@@@@@@@@@@@@@@@@@@@@@@@@@@@@@@@@@@@@@@@@@@@@@@@@@",
"@@@@@@@@@@@@@@@@@@@@@@@@@@@@@@@@@@@@@@@@@@@@@@@@@@@@@@@@@@@@@@@@",
"@@@@@@@@@@@@@@@@@@@@@@@@@@@@@@@@@@@@@@@@@@@@@@@@@@@@@@@@@@@@@@@@",
"@@@@@@@@@@@@@@@@@@@@@@@@@@@@@@@@@@@@@@@@@@@@@@@@@@@@@@@@@@@@@@@@",
"@@@@@@@@@@@@@@@@@@@          @@@@@@@@@@@@@@@@@@@@@@@@@@@@@@@@@@@",
"@@@@@@@@@@@@@@@@@@@          @@@@@@@@@@@@@@@@@@@@@@@@@@@@@@@@@@@",
"@@@@@@@@@@@@@@@@@@@          @@@@@@@@@@@@@@@@@@@@@@@@@@@@@@@@@@@",
"@@@@@@@@@@@@@@@@@  oooooooooo   @@@@@@@@@@@@@@@@@@@@@@@@@@@@@@@@",
"@@@@@@@@@@@@@@@@@  oooooooooo   @@@@@@@@@@@@@@@@@@@@@@@@@@@@@@@@",
"@@@@@@@@@@@@@@@@@  OOOOooOOOO   @@@@@@@@@@@@@@@@@@@@@@@@@@@@@@@@",
"@@@@@@@@@@@@@@@@@  OOOOooOOOO   @@@@@@@@@@@@@@@@@@@@@@@@@@@@@@@@",
"@@@@@@@@@@@@@@@@@  OOOOooOOOO   @@@@@@@@@@@@@@@@@@@@@@@@@@@@@@@@",
"@@@@@@@@@@@@@@   ooOOOOOOOOOOooo  @@@@@@@@@@@@@@@@@@@@@@@@@@@@@@",
"@@@@@@@@@@@@@@   ooOOOOOOOOOOooo  @@@@@@@@@@@@@@@@@@@@@@@@@@@@@@",
"@@@@@@@@@@@@@@   OO   OOOOOOOooo  @@@@@@@@@@@@@@@@@@@@@@@@@@@@@@",
"@@@@@@@@@@@@@@   OO   OOOOOOOooo  @@@@@@@@@@@@@@@@@@@@@@@@@@@@@@",
"@@@@@@@@@@@@@@   OO   OOOOOOOooo  @@@@@@@@@@@@@@@@@@@@@@@@@@@@@@",
"@@@@@@@@@@@   XXXXXOOOOOOOOOOooo  @@@@@@@@@@@@@@@@@@@@@@@@@@@@@@",
"@@@@@@@@@@@   XXXXXOOOOOOOOOOooo  @@@@@@@@@@@@@@@@@@@@@@@@@@@@@@",
"@@@@@@@@@@@   XXXXXOOOOOOOOOOooo  @@@@@@@@@@@@@@@@@@@@@@@@@@@@@@",
"@@@@@@@@@@@@@@     OOOOOOOOOO     @@@@@@@@@@@@@@@@@@@@@@@@@@@@@@",
"@@@@@@@@@@@@@@     OOOOOOOOOO     @@@@@@@@@@@@@@@@@@@@@@@@@@@@@@",
"@@@@@@@@@@@@@@@@@@@   OOooo  @@@@@@@@@@@@@@@@@@@@@@@@@@@@@@@@@@@",
"@@@@@@@@@@@@@@@@@@@   OOooo  @@@@@@@@@@@@@@@@@@@@@@@@@@@@@@@@@@@",
"@@@@@@@@@@@@@@@@@@@   OOooo  @@@@@@@@@@@@@@@@@@@@@@@@@@@@@@@@@@@",
"@@@@@@@@@@@@@@@@@@@   oo   @@@@@@@@@@@@@@@   @@@@@@@@@@@@@@@@@@@",
"@@@@@@@@@@@@@@@@@@@   oo   @@@@@@@@@@@@@@@   @@@@@@@@@@@@@@@@@@@",
"@@@@@@@@@@@@@@@@@  oooooooo     @@@@@@@@  ooo  @@@@@@@@@@@@@@@@@",
"@@@@@@@@@@@@@@@@@  oooooooo     @@@@@@@@  ooo  @@@@@@@@@@@@@@@@@",
"@@@@@@@@@@@@@@@@@  oooooooo     @@@@@@@@  ooo  @@@@@@@@@@@@@@@@@",
"@@@@@@@@@@@@@@   OOoooOOOOOOOOOO        OOOOOOO   @@@@@@@@@@@@@@",
"@@@@@@@@@@@@@@   OOOOOOOOOOOOOOO        OOOOOOO   @@@@@@@@@@@@@@",
"@@@@@@@@@@@@@@   OOOOOOOOOOOOOOO        OOOOOOO   @@@@@@@@@@@@@@",
"@@@@@@@@@@@@@@   +++++OOOOOOOOOOOOOOOOOOoooooOO   @@@@@@@@@@@@@@",
"@@@@@@@@@@@@@@   +++++OOOOOOOOOOOOOOOoOOoooooOO   @@@@@@@@@@@@@@",
"@@@@@@@@@@@@@@@@@  ++++++++++++++oOOooOOoooooOO   @@@@@@@@@@@@@@",
"@@@@@@@@@@@@@@@@@  ++++++++++++++oOOoOOOoooooOO   @@@@@@@@@@@@@@",
"@@@@@@@@@@@@@@@@@  ++++++++++++++oOOoOOOoooooOO   @@@@@@@@@@@@@@",
"@@@@@@@@@@@@@@@@@  +++++OOOOOOOOOOOOoOOOoooooOO   @@@@@@@@@@@@@@",
"@@@@@@@@@@@@@@@@@  +++++OOOOOOOOOOOOoOOOoooooOO   @@@@@@@@@@@@@@",
"@@@@@@@@@@@@@@@@@@@   +++++OOOOOOOOOooooooooo  @@@@@@@@@@@@@@@@@",
"@@@@@@@@@@@@@@@@@@@   +++++OOOOOOOOOooooooooo  @@@@@@@@@@@@@@@@@",
"@@@@@@@@@@@@@@@@@@@   +++++OOOOOOOOOOoooooooo  @@@@@@@@@@@@@@@@@",
"@@@@@@@@@@@@@@@@@@@   +++++++++++oooooooooOOO  @@@@@@@@@@@@@@@@@",
"@@@@@@@@@@@@@@@@@@@   +++++++++++oooooooooOOO  @@@@@@@@@@@@@@@@@",
"@@@@@@@@@@@@@@@@@@@   +++++++++++oooooooooOOO  @@@@@@@@@@@@@@@@@",
"@@@@@@@@@@@@@@@@@@@@@@     ++++++ooooooo     @@@@@@@@@@@@@@@@@@@",
"@@@@@@@@@@@@@@@@@@@@@@     ++++++ooooooo     @@@@@@@@@@@@@@@@@@@",
"@@@@@@@@@@@@@@@@@@@@@@                       @@@@@@@@@@@@@@@@@@@",
"@@@@@@@@@@@@@@@@@@@@@@@@XXX             XXXXX@@@@@@@@@@@@@@@@@@@",
"@@@@@@@@@@@@@@@@@@@@@@@@XXX             XXXXX@@@@@@@@@@@@@@@@@@@",
"@@@@@@@@@@@@@@@@@@@@@@..XXX             XXXXX@@@@@@@@@@@@@@@@@@@",
"@@@@@@@@@@@@@@@@@@@@..XXXXXXXXX@@@@@XXXXXXXXX@@@@@@@@@@@@@@@@@@@",
"@@@@@@@@@@@@@@@@@@@@..XXXXXXXXX@@@..XXXXXXXXX@@@@@@@@@@@@@@@@@@@",
"@@@@@@@@@@@@@@@@@@@@..XXXXXXXXX@@@..XXXXXXXXX@@@@@@@@@@@@@@@@@@@",
"@@@@@@@@@@@@@@@@@@@@..XXXXXXXXX@@@..XXXXXXXXX@@@@@@@@@@@@@@@@@@@",
"@@@@@@@@@@@@@@@@@@@@@@@.XXXXX@@@@@@@......X@@@@@@@@@@@@@@@@@@@@@",
"@@@@@@@@@@@@@@@@@@@@@@@@@@@@@@@@@@@@@@@@@@@@@@@@@@@@@@@@@@@@@@@@",
"@@@@@@@@@@@@@@@@@@@@@@@@@@@@@@@@@@@@@@@@@@@@@@@@@@@@@@@@@@@@@@@@",
"@@@@@@@@@@@@@@@@@@@@@@@@@@@@@@@@@@@@@@@@@@@@@@@@@@@@@@@@@@@@@@@@",
"@@@@@@@@@@@@@@@@@@@@@@@@@@@@@@@@@@@@@@@@@@@@@@@@@@@@@@@@@@@@@@@@",
"@@@@@@@@@@@@@@@@@@@@@@@@@@@@@@@@@@@@@@@@@@@@@@@@@@@@@@@@@@@@@@@@"
};
